<svg width="200" height="200" viewBox="0 0 200 200" xmlns="http://www.w3.org/2000/svg">
  <!-- Body -->
  <ellipse cx="100" cy="118" rx="62" ry="52" fill="#f9a8c9"/>

  <!-- Head -->
  <circle cx="100" cy="72" r="40" fill="#f9a8c9"/>

  <!-- Snout -->
  <ellipse cx="100" cy="90" rx="22" ry="16" fill="#f472b6"/>

  <!-- Nostrils -->
  <circle cx="92" cy="90" r="5" fill="#be185d"/>
  <circle cx="108" cy="90" r="5" fill="#be185d"/>

  <!-- Eyes -->
  <circle cx="82" cy="62" r="9" fill="#ffffff"/>
  <circle cx="118" cy="62" r="9" fill="#ffffff"/>
  <circle cx="84" cy="63" r="5" fill="#1e1e1e"/>
  <circle cx="120" cy="63" r="5" fill="#1e1e1e"/>
  <!-- Eye shine -->
  <circle cx="86" cy="61" r="2" fill="#ffffff"/>
  <circle cx="122" cy="61" r="2" fill="#ffffff"/>

  <!-- Ears -->
  <ellipse cx="64" cy="44" rx="14" ry="18" fill="#f9a8c9" transform="rotate(-15 64 44)"/>
  <ellipse cx="64" cy="44" rx="8" ry="11" fill="#f472b6" transform="rotate(-15 64 44)"/>
  <ellipse cx="136" cy="44" rx="14" ry="18" fill="#f9a8c9" transform="rotate(15 136 44)"/>
  <ellipse cx="136" cy="44" rx="8" ry="11" fill="#f472b6" transform="rotate(15 136 44)"/>

  <!-- Front legs -->
  <ellipse cx="58" cy="158" rx="16" ry="22" fill="#f9a8c9" transform="rotate(-10 58 158)"/>
  <ellipse cx="142" cy="158" rx="16" ry="22" fill="#f9a8c9" transform="rotate(10 142 158)"/>

  <!-- Hooves -->
  <ellipse cx="55" cy="174" rx="14" ry="8" fill="#f472b6" transform="rotate(-10 55 174)"/>
  <ellipse cx="145" cy="174" rx="14" ry="8" fill="#f472b6" transform="rotate(10 145 174)"/>

  <!-- Tail -->
  <path d="M158 120 Q180 108 178 90 Q176 76 168 80" stroke="#f472b6" stroke-width="8" fill="none" stroke-linecap="round"/>
  <circle cx="166" cy="81" r="5" fill="#f9a8c9"/>
</svg>
